<?xml version="1.0" encoding="utf-8"?>
<!-- Generator: Adobe Illustrator 22.1.0, SVG Export Plug-In . SVG Version: 6.00 Build 0)  -->
<svg version="1.1" id="レイヤー_1" xmlns="http://www.w3.org/2000/svg" xmlns:xlink="http://www.w3.org/1999/xlink" x="0px"
	 y="0px" viewBox="0 0 417.7 188.9" style="enable-background:new 0 0 417.7 188.9;" xml:space="preserve">
<style type="text/css">
	.st0{fill:#D656A2;}
	.st1{fill:#3E3A39;}
</style>
<g>
	<path class="st0" d="M91,106.3H47c-6.7,0-12.2-5.5-12.2-12.2v0c0-6.7,5.5-12.2,12.2-12.2H91c0.1,0,0.2,0,0.2,0l0.3-35.7
		C92,21.1,72,0.4,46.9,0h0C24.6-0.4,5.7,15.4,1.6,36.6h43c6.7,0,12.2,5.5,12.2,12.2v0c0,6.7-5.5,12.2-12.2,12.2H0.6L0,144.3
		c-0.4,21.3,13.9,39.3,33.6,44.6v-49.8c0-6.7,5.5-12.2,12.2-12.2l0,0c6.7,0,12.2,5.5,12.2,12.2v49.6c18.7-5.4,32.5-22.4,32.8-42.8
		L91,106.3C91.1,106.3,91,106.3,91,106.3z"/>
	<g>
		<path class="st1" d="M137.8,136.1V56.9h11.2v33.4h37.7V56.9h11.2v79.3h-11.2V98.7h-37.7v37.4H137.8z"/>
		<path class="st1" d="M249.6,56.9h11.2v50c0,8,1.5,13.8,4.4,17.4c2.9,3.6,7.6,5.4,14,5.4c6.3,0,10.7-1.7,13.3-5.1
			c2.6-3.4,3.9-9.2,3.9-17.3V56.9h9.9v50.2c0,6.9-0.7,12.3-2,16c-1.4,3.7-3.8,7-7.3,9.8c-4.4,3.5-10.5,5.2-18.3,5.2
			c-10,0-17.4-2.5-22.2-7.6c-4.7-5.1-7.1-13-7.1-23.7V56.9z"/>
		<path class="st1" d="M417.7,134c-9.6,2.8-18,4.1-25.1,4.1c-12.6,0-22.3-3.6-29-10.7c-6.7-7.2-10.1-17.5-10.1-30.9
			c0-13.2,3.4-23.5,10.3-30.7c6.8-7.3,16.5-10.9,28.8-10.9c8,0,16.3,1.2,25,3.6v10.4c-10.9-3.7-19.3-5.6-25.1-5.6
			c-8.6,0-15.2,2.9-20,8.7c-4.7,5.8-7.1,14-7.1,24.6c0,10.5,2.5,18.6,7.6,24.4c5.1,5.8,12.2,8.7,21.3,8.7c3.7,0,7.8-0.7,12.1-2
			v-25.8h11.2V134z"/>
	</g>
	<g>
		<path class="st1" d="M137.8,168.7v-16.6h2.4v7h7.9v-7h2.4v16.6h-2.4v-7.9h-7.9v7.9H137.8z"/>
		<path class="st1" d="M161.3,152.1h2.4v10.5c0,1.7,0.3,2.9,0.9,3.6c0.6,0.8,1.6,1.1,2.9,1.1c1.3,0,2.2-0.4,2.8-1.1
			c0.5-0.7,0.8-1.9,0.8-3.6v-10.6h2.1v10.5c0,1.5-0.1,2.6-0.4,3.3c-0.3,0.8-0.8,1.5-1.5,2.1c-0.9,0.7-2.2,1.1-3.8,1.1
			c-2.1,0-3.7-0.5-4.6-1.6c-1-1.1-1.5-2.7-1.5-5V152.1z"/>
		<path class="st1" d="M196.5,168.3c-2,0.6-3.8,0.9-5.3,0.9c-2.6,0-4.7-0.8-6.1-2.3c-1.4-1.5-2.1-3.7-2.1-6.5c0-2.8,0.7-4.9,2.2-6.4
			c1.4-1.5,3.5-2.3,6.1-2.3c1.7,0,3.4,0.3,5.2,0.8v2.2c-2.3-0.8-4-1.2-5.3-1.2c-1.8,0-3.2,0.6-4.2,1.8c-1,1.2-1.5,2.9-1.5,5.2
			c0,2.2,0.5,3.9,1.6,5.1c1.1,1.2,2.6,1.8,4.5,1.8c0.8,0,1.6-0.1,2.5-0.4v-5.4h2.4V168.3z"/>
		<path class="st1" d="M233.8,167.9c-1.6,0.8-3.4,1.3-5.4,1.3c-2.6,0-4.6-0.8-6-2.3c-1.4-1.5-2.1-3.7-2.1-6.4c0-2.8,0.7-4.9,2.2-6.5
			c1.4-1.5,3.5-2.3,6.1-2.3c1.5,0,3.2,0.2,5.2,0.7v2.2c-2.3-0.8-4-1.2-5.3-1.2c-1.8,0-3.2,0.6-4.2,1.8c-1,1.2-1.5,2.9-1.5,5.2
			c0,2.1,0.5,3.8,1.6,5s2.5,1.8,4.3,1.8c1.6,0,3.2-0.5,5-1.4V167.9z"/>
		<path class="st1" d="M248.8,169c-1.8,0-3.2-0.6-4.3-1.7c-1-1.1-1.6-2.7-1.6-4.7c0-2,0.5-3.5,1.6-4.7c1-1.1,2.5-1.7,4.3-1.7
			c1.8,0,3.2,0.6,4.3,1.7c1,1.1,1.6,2.7,1.6,4.7c0,2-0.5,3.5-1.6,4.7C252,168.4,250.6,169,248.8,169z M248.8,167.3
			c1.1,0,2-0.4,2.6-1.2c0.6-0.8,0.9-2,0.9-3.5c0-1.5-0.3-2.7-0.9-3.5c-0.6-0.8-1.5-1.2-2.6-1.2c-1.1,0-1.9,0.4-2.6,1.2
			c-0.6,0.8-0.9,2-0.9,3.5c0,1.5,0.3,2.7,0.9,3.5S247.7,167.3,248.8,167.3z"/>
		<path class="st1" d="M264.8,168.7v-12.2h2.2v2.3c0.9-1.7,2.1-2.6,3.8-2.6c0.2,0,0.5,0,0.7,0.1v2.1c-0.4-0.1-0.7-0.2-1-0.2
			c-1.4,0-2.6,0.8-3.5,2.5v8H264.8z"/>
		<path class="st1" d="M280.9,173.1v-16.6h2.2v2.3c0.9-1.7,2.3-2.6,4.1-2.6c1.5,0,2.6,0.5,3.5,1.6s1.3,2.5,1.3,4.4
			c0,2-0.5,3.7-1.4,4.9c-1,1.2-2.2,1.9-3.8,1.9c-1.4,0-2.6-0.6-3.6-1.7v5.8H280.9z M283.1,165.8c1.1,1,2.2,1.5,3.3,1.5
			c1,0,1.8-0.4,2.4-1.3c0.6-0.8,0.8-2,0.8-3.6c0-2.9-0.9-4.3-2.8-4.3c-1.2,0-2.4,0.7-3.6,2V165.8z"/>
		<path class="st1" d="M306.9,169c-1.8,0-3.2-0.6-4.3-1.7c-1-1.1-1.6-2.7-1.6-4.7c0-2,0.5-3.5,1.6-4.7c1-1.1,2.5-1.7,4.3-1.7
			c1.8,0,3.2,0.6,4.3,1.7c1,1.1,1.6,2.7,1.6,4.7c0,2-0.5,3.5-1.6,4.7C310.1,168.4,308.7,169,306.9,169z M306.9,167.3
			c1.1,0,2-0.4,2.6-1.2s0.9-2,0.9-3.5c0-1.5-0.3-2.7-0.9-3.5c-0.6-0.8-1.5-1.2-2.6-1.2c-1.1,0-1.9,0.4-2.6,1.2
			c-0.6,0.8-0.9,2-0.9,3.5c0,1.5,0.3,2.7,0.9,3.5S305.8,167.3,306.9,167.3z"/>
		<path class="st1" d="M322.8,168.7v-12.2h2.2v2.3c0.9-1.7,2.1-2.6,3.8-2.6c0.2,0,0.5,0,0.7,0.1v2.1c-0.4-0.1-0.7-0.2-1-0.2
			c-1.4,0-2.6,0.8-3.5,2.5v8H322.8z"/>
		<path class="st1" d="M345.2,167.2c-1.3,1.2-2.6,1.8-3.8,1.8c-1,0-1.9-0.3-2.5-0.9c-0.7-0.6-1-1.4-1-2.4c0-1.3,0.6-2.4,1.7-3.1
			c1.1-0.7,2.7-1.1,4.8-1.1h0.5V160c0-1.4-0.7-2.1-2.2-2.1c-1.1,0-2.4,0.4-3.8,1.1v-1.8c1.5-0.6,2.9-0.9,4.2-0.9
			c1.4,0,2.4,0.3,3,0.9c0.6,0.6,1,1.6,1,2.9v5.5c0,1.3,0.4,1.9,1.2,1.9c0.1,0,0.2,0,0.4,0l0.2,1.2c-0.5,0.2-1.1,0.4-1.7,0.4
			C346.2,169,345.5,168.4,345.2,167.2z M344.9,166v-3.2l-0.7,0c-1.2,0-2.2,0.2-3,0.7c-0.8,0.5-1.1,1.1-1.1,1.8c0,0.5,0.2,1,0.6,1.3
			c0.4,0.4,0.8,0.6,1.4,0.6C342.9,167.2,343.9,166.8,344.9,166z"/>
		<path class="st1" d="M363.7,168.7c-0.7,0.2-1.3,0.3-1.8,0.3c-1.1,0-2-0.3-2.6-1c-0.6-0.6-0.9-1.5-0.9-2.7v-7.2h-1.5v-1.7h1.5v-2.2
			l2.2-0.2v2.4h3.2v1.7h-3.2v6.8c0,1.6,0.7,2.4,2.1,2.4c0.3,0,0.6,0,1.1-0.1V168.7z"/>
		<path class="st1" d="M373.6,154.3v-2.2h2.2v2.2H373.6z M373.6,168.7v-12.2h2.2v12.2H373.6z"/>
		<path class="st1" d="M391.8,169c-1.8,0-3.2-0.6-4.3-1.7c-1-1.1-1.6-2.7-1.6-4.7c0-2,0.5-3.5,1.6-4.7c1-1.1,2.5-1.7,4.3-1.7
			c1.8,0,3.2,0.6,4.3,1.7c1,1.1,1.6,2.7,1.6,4.7c0,2-0.5,3.5-1.6,4.7C395,168.4,393.5,169,391.8,169z M391.7,167.3
			c1.1,0,2-0.4,2.6-1.2c0.6-0.8,0.9-2,0.9-3.5c0-1.5-0.3-2.7-0.9-3.5c-0.6-0.8-1.5-1.2-2.6-1.2s-1.9,0.4-2.6,1.2
			c-0.6,0.8-0.9,2-0.9,3.5c0,1.5,0.3,2.7,0.9,3.5S390.7,167.3,391.7,167.3z"/>
		<path class="st1" d="M407.7,168.7v-12.2h2.2v2.3c1.2-1.7,2.6-2.6,4.3-2.6c1.1,0,1.9,0.3,2.5,1c0.6,0.7,0.9,1.6,0.9,2.7v8.8h-2.2
			v-8c0-0.9-0.1-1.6-0.4-1.9c-0.3-0.4-0.7-0.6-1.3-0.6c-1.4,0-2.6,0.9-3.8,2.7v7.9H407.7z"/>
	</g>
</g>
</svg>
