<?xml version="1.0" encoding="utf-8"?>
<!-- Generator: Adobe Illustrator 22.1.0, SVG Export Plug-In . SVG Version: 6.00 Build 0)  -->
<svg version="1.1" id="レイヤー_1" xmlns="http://www.w3.org/2000/svg" xmlns:xlink="http://www.w3.org/1999/xlink" x="0px"
	 y="0px" viewBox="0 0 268.9 366.6" style="enable-background:new 0 0 268.9 366.6;" xml:space="preserve">
<style type="text/css">
	.st0{fill:#D656A2;}
	.st1{fill:#3E3A39;}
</style>
<g>
	<path class="st0" d="M188.9,122.4h-50.7c-7.8,0-14-6.3-14-14v0c0-7.8,6.3-14,14-14h50.7c0.1,0,0.2,0,0.3,0l0.3-41.1
		C190,24.3,167,0.5,138.1,0h0c-25.7-0.4-47.4,17.7-52.2,42.1h49.5c7.8,0,14,6.3,14,14v0c0,7.8-6.3,14-14,14H84.8l-0.7,95.9
		c-0.4,24.5,16,45.3,38.7,51.4v-57.4c0-7.8,6.3-14,14-14l0,0c7.8,0,14,6.3,14,14v57.1c21.5-6.2,37.4-25.8,37.8-49.3L188.9,122.4
		C189,122.4,189,122.4,188.9,122.4z"/>
	<g>
		<path class="st1" d="M1.6,331.2v-75.7h10.7v31.9h36v-31.9h10.7v75.7H48.4v-35.8h-36v35.8H1.6z"/>
		<path class="st1" d="M108.4,255.5h10.7v47.8c0,7.6,1.4,13.1,4.2,16.6c2.8,3.5,7.3,5.2,13.4,5.2c6,0,10.2-1.6,12.7-4.9
			c2.5-3.3,3.8-8.8,3.8-16.6v-48.2h9.5v48c0,6.6-0.6,11.7-1.9,15.3c-1.3,3.5-3.6,6.7-7,9.4c-4.2,3.3-10,5-17.5,5
			c-9.6,0-16.6-2.4-21.2-7.3c-4.5-4.8-6.8-12.4-6.8-22.7V255.5z"/>
		<path class="st1" d="M268.9,329.2c-9.2,2.6-17.2,3.9-24,3.9c-12,0-21.3-3.4-27.7-10.3c-6.4-6.8-9.6-16.7-9.6-29.5
			c0-12.6,3.3-22.4,9.8-29.3c6.5-6.9,15.7-10.4,27.6-10.4c7.6,0,15.6,1.1,23.9,3.4v9.9c-10.4-3.5-18.4-5.3-24-5.3
			c-8.2,0-14.5,2.8-19.1,8.3c-4.5,5.5-6.8,13.4-6.8,23.5c0,10,2.4,17.8,7.3,23.3c4.8,5.6,11.6,8.3,20.3,8.3c3.6,0,7.4-0.6,11.6-1.9
			v-24.7h10.7V329.2z"/>
	</g>
	<g>
		<path class="st1" d="M0,362.3v-15.9h2.3v6.7h7.6v-6.7h2.3v15.9H9.8v-7.5H2.3v7.5H0z"/>
		<path class="st1" d="M22.4,346.5h2.3v10c0,1.6,0.3,2.8,0.9,3.5c0.6,0.7,1.5,1.1,2.8,1.1c1.3,0,2.1-0.3,2.7-1
			c0.5-0.7,0.8-1.8,0.8-3.5v-10.1h2v10.1c0,1.4-0.1,2.5-0.4,3.2c-0.3,0.7-0.8,1.4-1.5,2c-0.9,0.7-2.1,1.1-3.7,1.1
			c-2,0-3.5-0.5-4.4-1.5c-0.9-1-1.4-2.6-1.4-4.8V346.5z"/>
		<path class="st1" d="M56.1,361.9c-1.9,0.6-3.6,0.8-5,0.8c-2.5,0-4.5-0.7-5.8-2.2c-1.3-1.4-2-3.5-2-6.2c0-2.6,0.7-4.7,2.1-6.2
			c1.4-1.5,3.3-2.2,5.8-2.2c1.6,0,3.3,0.2,5,0.7v2.1c-2.2-0.7-3.9-1.1-5-1.1c-1.7,0-3.1,0.6-4,1.7c-0.9,1.2-1.4,2.8-1.4,4.9
			c0,2.1,0.5,3.7,1.5,4.9c1,1.2,2.4,1.7,4.3,1.7c0.8,0,1.6-0.1,2.4-0.4v-5.2h2.3V361.9z"/>
		<path class="st1" d="M91.7,361.5c-1.6,0.8-3.3,1.2-5.1,1.2c-2.5,0-4.4-0.7-5.7-2.2s-2-3.5-2-6.2c0-2.7,0.7-4.7,2.1-6.2
			c1.4-1.5,3.3-2.2,5.8-2.2c1.4,0,3.1,0.2,5,0.7v2.1c-2.2-0.8-3.9-1.1-5-1.1c-1.7,0-3.1,0.6-4,1.7c-0.9,1.2-1.4,2.8-1.4,4.9
			c0,2,0.5,3.6,1.5,4.8c1,1.2,2.4,1.7,4.1,1.7c1.5,0,3.1-0.5,4.8-1.4V361.5z"/>
		<path class="st1" d="M106,362.6c-1.7,0-3.1-0.5-4.1-1.6c-1-1.1-1.5-2.6-1.5-4.5s0.5-3.4,1.5-4.4c1-1.1,2.4-1.6,4.1-1.6
			c1.7,0,3.1,0.5,4.1,1.6s1.5,2.6,1.5,4.4s-0.5,3.4-1.5,4.5C109.1,362.1,107.7,362.6,106,362.6z M106,361c1.1,0,1.9-0.4,2.4-1.2
			c0.6-0.8,0.9-1.9,0.9-3.3c0-1.4-0.3-2.5-0.9-3.3c-0.6-0.8-1.4-1.2-2.4-1.2c-1,0-1.9,0.4-2.4,1.2c-0.6,0.8-0.9,1.9-0.9,3.3
			c0,1.4,0.3,2.5,0.9,3.3C104.1,360.6,105,361,106,361z"/>
		<path class="st1" d="M121.3,362.3v-11.7h2.1v2.2c0.8-1.6,2.1-2.4,3.6-2.4c0.2,0,0.4,0,0.7,0.1v2c-0.4-0.1-0.7-0.2-1-0.2
			c-1.3,0-2.5,0.8-3.4,2.4v7.7H121.3z"/>
		<path class="st1" d="M136.6,366.6v-15.9h2.1v2.2c0.9-1.6,2.2-2.4,3.9-2.4c1.4,0,2.5,0.5,3.3,1.5c0.8,1,1.2,2.4,1.2,4.2
			c0,1.9-0.5,3.5-1.4,4.7c-0.9,1.2-2.1,1.8-3.6,1.8c-1.4,0-2.5-0.5-3.4-1.6v5.6H136.6z M138.7,359.6c1.1,1,2.1,1.5,3.1,1.5
			c1,0,1.7-0.4,2.3-1.2c0.5-0.8,0.8-2,0.8-3.4c0-2.7-0.9-4.1-2.7-4.1c-1.2,0-2.3,0.6-3.5,1.9V359.6z"/>
		<path class="st1" d="M161.5,362.6c-1.7,0-3.1-0.5-4.1-1.6c-1-1.1-1.5-2.6-1.5-4.5s0.5-3.4,1.5-4.4c1-1.1,2.4-1.6,4.1-1.6
			c1.7,0,3.1,0.5,4.1,1.6s1.5,2.6,1.5,4.4s-0.5,3.4-1.5,4.5C164.5,362.1,163.2,362.6,161.5,362.6z M161.5,361c1.1,0,1.9-0.4,2.4-1.2
			c0.6-0.8,0.9-1.9,0.9-3.3c0-1.4-0.3-2.5-0.9-3.3c-0.6-0.8-1.4-1.2-2.4-1.2c-1,0-1.9,0.4-2.4,1.2c-0.6,0.8-0.9,1.9-0.9,3.3
			c0,1.4,0.3,2.5,0.9,3.3C159.6,360.6,160.4,361,161.5,361z"/>
		<path class="st1" d="M176.7,362.3v-11.7h2.1v2.2c0.8-1.6,2.1-2.4,3.6-2.4c0.2,0,0.4,0,0.7,0.1v2c-0.4-0.1-0.7-0.2-1-0.2
			c-1.3,0-2.5,0.8-3.4,2.4v7.7H176.7z"/>
		<path class="st1" d="M198.1,360.9c-1.3,1.2-2.5,1.7-3.7,1.7c-1,0-1.8-0.3-2.4-0.9c-0.6-0.6-1-1.4-1-2.3c0-1.3,0.5-2.3,1.6-2.9
			c1.1-0.7,2.6-1,4.6-1h0.5v-1.4c0-1.4-0.7-2-2.1-2c-1.1,0-2.3,0.3-3.6,1v-1.7c1.4-0.6,2.8-0.9,4-0.9c1.3,0,2.3,0.3,2.9,0.9
			c0.6,0.6,0.9,1.5,0.9,2.7v5.3c0,1.2,0.4,1.8,1.1,1.8c0.1,0,0.2,0,0.4,0l0.1,1.2c-0.5,0.2-1,0.3-1.6,0.3
			C199,362.6,198.4,362,198.1,360.9z M197.8,359.7v-3l-0.7,0c-1.2,0-2.1,0.2-2.8,0.7c-0.7,0.4-1.1,1-1.1,1.7c0,0.5,0.2,0.9,0.5,1.3
			c0.4,0.4,0.8,0.5,1.3,0.5C195.9,360.9,196.8,360.5,197.8,359.7z"/>
		<path class="st1" d="M215.8,362.3c-0.7,0.2-1.2,0.3-1.7,0.3c-1.1,0-1.9-0.3-2.5-0.9c-0.6-0.6-0.9-1.5-0.9-2.6v-6.8h-1.5v-1.6h1.5
			v-2.1l2.1-0.2v2.3h3v1.6h-3v6.5c0,1.5,0.7,2.3,2,2.3c0.3,0,0.6,0,1-0.1V362.3z"/>
		<path class="st1" d="M225.2,348.6v-2.1h2.1v2.1H225.2z M225.2,362.3v-11.7h2.1v11.7H225.2z"/>
		<path class="st1" d="M242.6,362.6c-1.7,0-3.1-0.5-4.1-1.6c-1-1.1-1.5-2.6-1.5-4.5s0.5-3.4,1.5-4.4c1-1.1,2.4-1.6,4.1-1.6
			c1.7,0,3.1,0.5,4.1,1.6s1.5,2.6,1.5,4.4s-0.5,3.4-1.5,4.5C245.6,362.1,244.3,362.6,242.6,362.6z M242.6,361c1.1,0,1.9-0.4,2.4-1.2
			c0.6-0.8,0.9-1.9,0.9-3.3c0-1.4-0.3-2.5-0.9-3.3c-0.6-0.8-1.4-1.2-2.4-1.2s-1.9,0.4-2.4,1.2c-0.6,0.8-0.9,1.9-0.9,3.3
			c0,1.4,0.3,2.5,0.9,3.3C240.7,360.6,241.5,361,242.6,361z"/>
		<path class="st1" d="M257.8,362.3v-11.7h2.1v2.2c1.1-1.6,2.5-2.4,4.1-2.4c1,0,1.8,0.3,2.4,1c0.6,0.6,0.9,1.5,0.9,2.6v8.4h-2.1
			v-7.7c0-0.9-0.1-1.5-0.4-1.9c-0.3-0.4-0.7-0.6-1.3-0.6c-1.3,0-2.5,0.8-3.7,2.5v7.5H257.8z"/>
	</g>
</g>
</svg>
